<?xml version="1.0" encoding="utf-8"?>
<!DOCTYPE svg PUBLIC "-//W3C//DTD SVG 1.1//EN" "http://www.w3.org/Graphics/SVG/1.1/DTD/svg11.dtd">
<svg xmlns="http://www.w3.org/2000/svg" xmlns:xlink="http://www.w3.org/1999/xlink" version="1.1" width="100%" height="100%" viewBox="-164 -164 328 328">
 <title>Thermohaline circulation</title>
 <desc>Animated world map of the thermohaline circulation by CMG Lee. The original map is from http://commons.wikimedia.org/wiki/File:Conveyor_belt.svg . To show the AMOC label, set the system language to "am".</desc>
 <style type="text/css">
.main { font-family:Helvetica,Arial,sans-serif; font-size:10px; text-anchor:middle; stroke:none; fill:#000000; }
@keyframes         flow { from { stroke-dashoffset:5; }
                          to   { stroke-dashoffset:0; } }
@-moz-keyframes    flow { from { stroke-dashoffset:5; }
                          to   { stroke-dashoffset:0; } }
@-webkit-keyframes flow { from { stroke-dashoffset:5; }
                          to   { stroke-dashoffset:0; } }
.flow { animation:         flow 1s linear infinite;
        -moz-animation:    flow 1s linear infinite;
        -webkit-animation: flow 1s linear infinite; }
 </style>
 <defs>
  <path id="flow" d=" M 190,208 C 149,199 161,149 192,154 C 223,157 231,205 190,208 C 187,208 177,211 159,210 C 143,209 90,215 75,216 C 44,216 25,174 77,178 C 123,184 95,242 124,266 C 185,318 228,250 230,245 C 248,212 282,215 267,168 C 264,160 232,144 225,181 M 104,86 C 117,58 128,62 129,52 C 129,42 108,34 109,57 C 112,73 120,90 136,91 C 166,92 179,112 174,128 C 170,141 193,154 205,149 C 233,139 243,114 251,108 C 271,93 283,106 282,128 C 282,145 276,159 247,155 C 238,154 228,150 219,143 C 212,136 206,125 201,110 C 196,89 173,82 155,89 C 118,100 79,140 104,86 C 109,73 104,58 96,63 C 92,69 99,74 122,85 M 176,149 C 196,144 191,164 183,164 C 176,164 176,157 185,154 M 183,146 C 228,139 246,214 193,214 C 162,216 133,169 182,146 C 193,141 203,134 202,113"/>
  <mask id="mask_flow">
   <g fill="none" stroke-width="3.5">
    <use xlink:href="#flow" stroke="#ffffff" stroke-width="5"/>
    <use class="flow" xlink:href="#flow" stroke="#202020" stroke-dasharray="1,4" stroke-linecap="round"/>
    <use class="flow" xlink:href="#flow" stroke="#404040" stroke-dasharray="0,5" stroke-linecap="round"/>
    <use class="flow" xlink:href="#flow" stroke="#606060" stroke-dasharray="0,4,1,0"/>
    <use class="flow" xlink:href="#flow" stroke="#808080" stroke-dasharray="0,3,1,1"/>
   </g>
  </mask>
 </defs>
 <circle cx="0" cy="0" r="99999" fill="#eeeeee"/>
 <circle cx="0" cy="0" r="162.5" fill="#ffffff"/>
 <g class="main">
  <g transform="rotate(0) translate(-157,-160)">
   <g fill="#66ccff">
    <path class="lakes" d="M283.508,230.99c-0.202,0.222-0.329,0.512-0.249,0.72C283.269,233.339,283.396,233.049,283.508,230.99 M164.862,316.443l0.37,0.336c0.288-0.138,0.55-0.242,0.791-0.322c-0.03-0.118-0.054-0.237-0.082-0.355C165.582,316.214,165.221,316.334,164.862,316.443 M58.561,75.635c-0.202,0.222-0.403,0.444-0.672,0.74l-0.671,0.741C58.671,77.895,59.074,77.45,58.561,75.635 M88.066,82.544c0.285,1.473,0.673,0.746,1.174-2.04c-0.201,0.223-0.403,0.444-0.671,0.741C88.167,81.689,87.979,82.194,88.066,82.544 M83.611,95.646c-0.202,0.223-0.329,0.512-0.249,0.721C83.371,97.995,83.499,97.705,83.611,95.646 M81.734,100.694c-0.201,0.222-0.403,0.444-0.672,0.741l-0.671,0.74C81.845,102.954,82.248,102.51,81.734,100.694 M71.916,102.591c2.955,1.059,3.828,0.096,2.687-2.963c0.069,1.412-0.595,2.294-1.779,2.706L71.916,102.591 M71.797,104.509c1.181,2.42,1.315,2.271,0.188-0.505C71.783,104.226,71.723,104.441,71.797,104.509 M78.771,98.008c-1.026,2.174-1.052,3.096,0.131,2.684C80.919,99.955,80.945,99.033,78.771,98.008 M75.558,104.678c2.102,2.446,2.343,1.585,0.595-2.294C75.28,103.347,75.106,104.134,75.558,104.678 M49.493,136.255l-0.336,0.37C51.83,137.698,51.964,137.55,49.493,136.255 M59.883,83.853l-0.907,0.257c-0.366-1.681-1.255-2.487-2.963-2.687c-0.202,0.223-0.329,0.512-0.315,0.794c-0.077,2.766,1.136,4.404,3.417,4.718c0.565-0.027,0.773-0.108,0.901-0.398C61.182,84.355,61.141,83.508,59.883,83.853 M58.027,79.2l-0.671,0.741c1.857,0.334,2.798-0.704,2.687-2.964C59.371,77.719,58.699,78.46,58.027,79.2 M47.826,102.213l0.679-0.6c-0.646-0.181-1.634-0.132-2.825,0.139C44.52,104.074,45.165,104.255,47.826,102.213 M16.591,230.607c-0.222-0.201-0.444-0.403-0.741-0.672c-0.739,0.814-0.429,1.366,0.931,1.653c0.215,0.061,0.35-0.088,0.551-0.31C17.11,231.078,16.887,230.876,16.591,230.607 M25.758,244.317c-0.222-0.201-0.445-0.402-0.741-0.672c0.095,0.491,0.116,0.915,0.278,1.332c0.155,0.275,0.31,0.551,0.532,0.753c0.269-0.297,0.47-0.519,0.672-0.741C26.276,244.788,26.054,244.586,25.758,244.317 M31.013,250.432c-0.222-0.201-0.519-0.47-0.741-0.671c-1.482-1.344-2.963-2.688-4.445-4.03c0.951,2.077,2.252,4.066,4.178,5.812c3.125,3.104,3.69,3.076,1.42,0.072C31.195,251.272,31.033,250.855,31.013,250.432 M230.396,302.97c-0.202,0.223-0.329,0.512-0.249,0.721C230.157,305.318,230.284,305.028,230.396,302.97 M226.227,304.59c-0.201,0.223-0.402,0.444-0.672,0.741l-0.671,0.74c0.519,0.471,1.084,0.443,1.769-0.016C229.113,304.236,229.018,303.745,226.227,304.59 M221.644,297.735l-0.336,0.37C223.235,299.853,223.369,299.704,221.644,297.735 M224.607,300.422c-0.201,0.222-0.328,0.512-0.248,0.72C224.369,302.771,224.496,302.479,224.607,300.422 M143.973,12.692c-0.269,0.297-0.329,0.512-0.248,0.721C143.801,14.967,143.862,14.751,143.973,12.692 M153.604,21.425c0.296,0.269,0.519,0.47,0.741,0.672c0.269-0.297,0.477-0.377,0.625-0.243c1.567,0.206,1.607-0.433-0.022-1.91c-0.27,0.296-0.403,0.443-0.672,0.74C154.006,20.98,153.873,21.128,153.604,21.425 M128.485,0l-0.336,0.37C131.615,1.758,131.683,1.684,128.485,0 M114.498,3.517c-0.201,0.222-0.328,0.512-0.456,0.802l-0.181,0.646C116.672,4.543,116.934,4.105,114.498,3.517 M108.245,5.946c-0.201,0.223-0.329,0.512-0.248,0.721C108.006,8.295,108.134,8.005,108.245,5.946 M101.657,8.747c1.926,1.746,2.061,1.598,0.336-0.371L101.657,8.747 M42.242,45.991c1.931,0.401,2.872-0.636,2.687-2.963c-0.671,0.74-1.343,1.481-2.015,2.223L42.242,45.991 M17.401,232.691l-0.336,0.37C18.991,234.809,19.126,234.66,17.401,232.691 M9.38,170.076c-0.202,0.223-0.329,0.512-0.249,0.721C9.14,172.425,9.268,172.135,9.38,170.076z"/>
   <path class="seas" d="M230.039,35.382c0.222,0.201,0.519,0.47,0.674,0.745c0.56,1.317,1.127,2.777,1.687,4.095l0.336-0.371 c2.378,2.291,5.724,4.109,9.829,5.537c0.269-0.297,0.335-0.371,0.335-0.371c-4.324-4.461-7.914-8.391-10.846-11.857 c-0.222-0.202-0.37-0.336-0.579-0.255l-0.833,0.323c-1.005-1.72-2.741-2.484-5.048-1.876c0.047-0.498-0.108-0.773-0.405-1.042 c-0.222-0.202-0.585-0.396-1.016-0.518c-3.163-0.978-4.37-2.476-3.834-4.555c-0.222-0.202-0.444-0.403-0.733-0.531 c-1.455-0.778-3.312-1.111-5.727-1.276c-0.27,0.296-0.262,0.438-0.262,0.438C217.519,29.835,223.087,33.669,230.039,35.382z M251.533,62.293c-0.223-0.201-0.378-0.477-0.525-0.61c-1.713-3.174-4.366-5.309-7.96-6.407 c1.113,2.493,3.297,5.147,6.401,7.828c0.296,0.269,0.519,0.47,0.748,0.812c2.796,3.616,5.462,6.033,7.806,7.617 c0.297,0.27,0.585,0.396,0.808,0.599c1.151,0.368,2.32-0.327,3.36-2.219C258.208,68.479,254.544,65.969,251.533,62.293z M214.708,40.38c-0.223-0.201-0.512-0.329-0.728-0.389c-3.538,0.03-6.995,0.271-10.573,0.941 c-0.222-0.201-0.377-0.477-0.532-0.753c-0.176-0.698-1.475-1.201-3.844-1.864c-0.222-0.201-0.444-0.403-0.74-0.672 c-1.074-0.898-2.437-1.53-4.101-1.924c0.324-0.254,0.871-1.2,1.088-1.141c0.543,0.15,1.087,0.239,1.637,0.265 c2.557,0.158,4.284-0.706,4.766-2.429c0.297,0.27,0.512,0.33,0.721,0.249c1.479-0.144,2.92,0.353,4.327,1.628 c0.269-0.297,0.477-0.377,0.625-0.242c1.991,0.186,3.888-0.12,5.697-0.775c-0.223-0.201-0.445-0.402-0.741-0.671 c-2.209-1.732-4.295-2.41-6.46-1.808c-0.223-0.202-0.444-0.403-0.674-0.746c-0.755-0.954-2.686-1.355-5.786-1.062 c0.269-0.297,0.402-0.444,0.254-0.579c-0.168-0.559-0.465-0.827-0.955-0.732c-1.198,0.13-2.328,0.186-3.531,0.174 c1.583,1.976,1.516,2.049-0.41,0.303l0.336-0.37c-1.204-0.013-2.349-0.239-3.566-0.534c-0.269,0.297-0.402,0.444-0.672,0.741 c-1.283,1.267-1.436,2.478-0.533,3.566c1.012,0.916,1.985,1.643,2.947,2.177c0.195,0.107-0.386,1.211-0.391,1.733 c-0.974-0.144-2.027-0.227-3.19-0.233c0.296,0.269,0.519,0.471,0.532,0.753l0.243,0.625c2.898-0.071,4.596,1.333,5.151,3.996 c-0.223-0.202-0.512-0.33-0.728-0.39c-4.07-0.721-7.389-1.975-10.109-4.036c-0.222-0.201-0.511-0.329-0.652-0.322 c-2.617,0.058-5.268-0.592-7.961-2.088c-1.356,1.199-2.83,1.483-4.425,0.713c-2.026-0.893-2.786-0.501-2.568,1.046 c0.296,0.269,0.512,0.329,0.794,0.314c3.673-0.18,7.447,0.273,11.316,1.216l0.336-0.37c1.037,0.94,1.934,1.888,2.627,3.058 c-0.269,0.296-0.336,0.37-0.41,0.303c-4.57-2.254-8.917-2.819-13.112-1.765c-1.267-1.283-2.431-1.935-3.635-1.946 c-0.424,0.021-0.633,0.102-0.767,0.25c-0.648,2.651-2.303,3.582-4.745,2.852c-0.201,0.223-0.262,0.438-0.255,0.579 c0.838,2.649,1.11,5.326,0.67,7.896c-0.202,0.222-0.403,0.444-0.754,0.532l-0.624,0.243c0.042,0.469-1.11,1.617-1.35,2.242 c0.46,0.346,0.471,0.574,0.781,0.617c0.435,0.395,3.433-1.643,4.84-2.36l0.371,0.335c3.868-4.861,8.877-6.664,14.959-5.334 c1.032,2.286,2.911,3.044,5.707,2.341c3.073-0.858,5.005-0.458,5.801,1.344c0.788,0.174,1.434,0.354,2.146,0.462 c3.411,0.257,4.58-0.438,3.435-2.151c0.27-0.296,0.478-0.377,0.76-0.391c3.665-0.321,7.521,0.34,11.351,1.922 c0.269-0.297,0.477-0.377,0.625-0.243c3.418,0.399,6.66,0.099,9.935-0.981c-0.223-0.201-0.452-0.544-0.532-0.753 C218.156,42.83,216.579,40.996,214.708,40.38z M171.858,40l0.336-0.371C173.919,41.598,173.785,41.746,171.858,40z M181.815,40.928l0.336-0.37C183.808,42.601,183.742,42.675,181.815,40.928z M212.288,41.56l0.336-0.37 C214.281,43.232,214.214,43.307,212.288,41.56z M243.136,71.554c-3.077-2.115-6.27-5.145-9.369-9.17 c-2.635-3.198-5.907-6.436-9.962-9.706c0.245,2.112,1.391,3.825,3.304,5.289c1.765,1.33,3.853,3.493,6.056,6.57 c1.065,1.506,2.19,2.796,3.181,4.234c0.917,1.371,1.9,2.668,2.535,4.053c0.776,1.411,1.756,2.564,2.919,3.482l-0.002,0.007 l5.267,5.052l6.193,3.591l-8.076-8.58C244.481,74.788,243.768,73.178,243.136,71.554z"/>
   <path class="arctic" d="M21.381,140.463c2.27-2.802,2.604-4.659,1.203-5.793c-0.289-0.128-0.512-0.329-0.808-0.599 c1.912-4.341,3.614-8.601,5.243-12.928c0.128-0.29,0.255-0.58,0.457-0.802c4.842-0.875,8.302-3.946,10.522-9.224 c-0.007-0.141-0.082-0.208-0.378-0.477c2.696-1.335,3.831-2.736,3.324-4.41l0.706-0.035c1.413-0.069,2.084-0.81,2.015-2.223 c0.385-3.7-0.685-3.86-3.195-0.197l-0.371-0.336c0.615-3.357,1.418-5.732,2.553-7.134c0.195-0.363,0.396-0.586,0.598-0.808 c2.966-0.145,5.218-1.884,6.693-5c0.134-0.148,0.201-0.223,0.498,0.046l-0.336,0.371c-0.299,2.562,0.469,3.8,2.292,3.427 l-0.672,0.741c-1.404,1.697-1.383,2.121,0.069,1.412c2.52-2.034,3.56-3.926,3.254-5.822l0.646,0.181 c0.357,0.053,0.579,0.255,0.801,0.456c-0.689-2.516-1.5-4.6-2.497-6.179c-0.229-0.343-0.377-0.477-0.674-0.745 c1.142-1.26,1.711-2.633,1.918-4.2c0.241-0.861,0.415-1.649,0.447-2.43c0.388-2.213-0.245-2.111-1.971,0.238 c-2.329-1.302-2.048-2.802,1.131-4.374c0.343-0.229,0.544-0.451,0.746-0.673c-2.281-0.313-2.074-1.881,0.901-4.717 c0.202-0.223,0.403-0.445,0.672-0.741c1.323-1.905,2.72-3.744,4.264-5.447c0.632,0.854,0.952,1.724,1.006,2.605 c0.283-0.167,0.568-0.338,0.854-0.511c-0.18-1.37,0.453-2.75,1.938-4.051c0.201-0.222,0.403-0.444,0.403-0.444 c0.36-2.779,1.916-5.687,4.462-8.644c3.409-1.229,5.525-2.818,6.492-4.778c-0.007-0.141-0.081-0.208-0.377-0.477 c2.422,0.306,4.675,0.055,6.901-0.763c0.625-0.242,1.183-0.411,1.667-0.647c0.208-0.081,0.357,0.053,0.579,0.255 c-1.302,2.328-0.381,2.354,2.758-0.064c0.067-0.074,0.208-0.081,0.342-0.229c1.862-1.012,2.508-0.83,1.878,0.758 c-1.973,3.069-0.837,3.156,3.129,0.271c0.067-0.074,0.215,0.061,0.437,0.262c0.269-0.297,0.47-0.519,0.672-0.74 c0.269-0.297,0.47-0.52,0.671-0.741c2.107,1.101,2.297,2.082,0.717,3.08c-0.142,0.007-0.283,0.014-0.579-0.255 c-0.202,0.222-0.403,0.444-0.672,0.74c0.296,0.269,0.377,0.478,0.458,0.686c0.246,2.112-0.64,4.279-2.937,6.516 c0.296,0.269,0.519,0.471,0.674,0.746c0.437,0.667,0.793,1.313,1.077,1.943c0.701-0.912,1.506-1.753,2.77-2.464 c10.979-6.52,25.343-7.59,33.003-17.945c-1.284-0.23-1.899-1.52-1.766-3.854c3.211,1.967,6.286,2.595,9.373,2.019 c3.02-0.501,6.155-0.089,9.197,1.32c-0.329,0.147-0.666,0.325-1.006,0.51c1.002,0.131,1.995,0.043,2.981-0.137 c-0.115-0.162-0.203-0.34-0.212-0.53c-0.372-1.822-0.113-3.747,0.786-5.632c-0.458-0.686,0.287-1.359,2.097-2.014l0.624-0.243 c-1.683-1.121-3.533-1.313-5.685-0.43c-0.201,0.223-0.402,0.444-0.679,0.6c-2.42,1.181-2.864,0.777-1.474-1.202 c-1.172-0.792-2.437-0.589-3.719,0.678c-0.947,0.896-2.124,1.449-3.314,1.72c-0.423,0.021-0.773,0.108-1.19,0.271 c-4.069,0.766-6.035-0.342-5.971-3.389c-0.222-0.201-0.445-0.403-0.801-0.456c-2.792-0.643-5.571-1.002-8.484-1.213 c0.047-0.498-0.109-0.773-0.405-1.043c-0.444-0.402-0.875-0.522-1.144-0.227c-1.901,1.65-2.596,0.481-2.225-3.502 c0.296,0.269,0.585,0.396,0.875,0.523c1.447,0.637,1.426,0.214-0.204-1.264c0.269-0.297,0.477-0.377,0.551-0.311l0.861,0.241 c0.859-1.246,2.52-2.035,4.84-2.361l-0.371-0.336c1.632-1.354,3.367-2.076,5.21-2.024c0.269-0.297,0.471-0.519,0.746-0.674 c1.888-1.934,4.981-2.367,9.073-1.223c-0.202,0.222-0.403,0.443-0.753,0.532l-0.625,0.243c1.792,1.895,3.614,1.522,5.615-0.983 c-1.843-0.051-3.728-0.95-5.721-2.622c-0.741-0.672-1.952-0.825-3.633-0.46c0.56,1.317-0.052,1.844-1.834,1.577 c-0.074-0.067-0.215-0.061-0.356-0.054c-2.497-0.373-3.695-1.73-3.598-4.071c-0.699,0.176-1.257,0.344-1.836,0.09 c-1.151-0.368-2.147-0.461-3.055-0.204c-2.313,0.467-2.609,0.198-0.829-1.021c0.394-2.072-0.467-2.313-2.383-0.945 c-0.268,0.296-0.686,0.458-1.102,0.62c-4.384,1.56-8.835,3.193-13.42,4.976c-0.833,0.323-1.594,0.715-2.137,1.166 c-3.287,2.285-4.356,2.125-3.351-0.473c-0.423,0.021-0.921-0.026-1.419-0.072c-0.713-0.106-1.204-0.012-1.546,0.217 c-2.499,2.459-3.912,2.528-4.097,0.201l0.336-0.37c-1.95,0.661-3.361,2.218-4.366,4.815c-1.116,0.338-2.306,0.608-3.504,0.738 c-0.416,0.161-0.833,0.323-1.176,0.552c-1.721,1.005-3.516,1.943-5.318,2.739c-3.462,1.585-6.183,3.842-7.881,6.757 c-4.793,1.863-9.585,5.213-14.308,9.975c-4.917,5.126-9.915,10.043-14.92,14.819l-0.672,0.74 c0.697-1.662,0.158-2.556-1.551-2.756c-5.823,6.869-11.155,13.644-15.982,20.605c-0.202,0.222-0.403,0.444-0.672,0.741 c0.755,0.954,0.454,2.031-0.904,3.229l0.371,0.336c-2.996,3.899-5.633,7.851-7.996,11.648c-0.127,0.289-0.329,0.511-0.598,0.808 c0.551,4.008-0.312,8.086-2.438,12.367c-0.068,0.074,0.014,0.282,0.236,0.483c2.544,1.362,2.75,4.113,0.475,8.26 c-0.195,0.364-0.382,0.869-0.637,1.447c-0.241,0.861-0.697,1.663-1.369,2.403c0.406,6.848,0.738,13.628,1.002,20.481 c0.095,0.491,0.19,0.981,0.285,1.474c0.176,0.698,0.062,1.271-0.112,2.058c1.756-0.298,2.406-1.463,2.087-3.642 c2.005,0.469,2.707,1.779,2.186,4.141l0.625-0.242c0.351-0.089,0.552-0.311,0.753-0.533c0.198,2.609,1.21,4.472,3.035,5.586 c0.305,0.164,0.505,0.332,0.695,0.501c0.612-0.292,1.214-0.598,1.804-0.922C21.682,140.8,21.584,140.647,21.381,140.463z M146.639,29.553c-0.081-0.208,0.047-0.498,0.248-0.72C146.776,30.892,146.715,31.106,146.639,29.553z M108.492,39.916 c3.929,0.729,3.575,2.161-0.781,4.286c-0.484,0.236-1.116,0.338-1.762,0.157C104.664,44.139,105.583,42.678,108.492,39.916z M112.122,12.836l0.181-0.646c0.128-0.29,0.255-0.579,0.457-0.802C115.122,11.91,114.934,12.415,112.122,12.836z M107.954,14.456 l0.181-0.646c0.128-0.29,0.255-0.579,0.457-0.802C111.027,13.598,110.765,14.035,107.954,14.456z M106.258,14.539 c-0.08-0.209,0.047-0.498,0.249-0.72C106.395,15.877,106.268,16.167,106.258,14.539z M51.743,43.402 c-0.08-0.209,0.047-0.498,0.249-0.72C51.88,44.74,51.752,45.03,51.743,43.402z M56.095,42.623 c-2.742,1.834-3.416,1.088-2.088-2.163c3.462-1.586,4.203-0.914,2.223,2.015L56.095,42.623z M21.371,82.411 c0.387,2.104-0.513,3.989-2.481,5.715c0,0,0.067-0.075,0.054-0.357C19.559,85.897,20.324,84.161,21.371,82.411z M17.143,90.052 l0.336-0.371C19.95,90.976,19.815,91.124,17.143,90.052z M88.844,20.348c-0.081-0.209,0.047-0.498,0.248-0.721 C88.981,21.686,88.853,21.976,88.844,20.348z M95.644,18.952c-4.262,2.616-5.479,2.321-3.795-0.876 c2.804-0.562,4.298-0.423,4.272,0.499L95.644,18.952z M98.593,17.038c-0.08-0.208,0.047-0.498,0.249-0.72 C98.73,18.376,98.602,18.666,98.593,17.038z M48.949,81.769l0.383-0.868c0.194-0.363,0.315-0.794,0.22-1.285 C51.941,80.702,51.761,81.348,48.949,81.769z M51.379,88.021l0.383-0.868c0.194-0.363,0.314-0.795,0.22-1.285 C54.461,88.791,54.288,89.578,51.379,88.021z M51.172,83.784c0.269-0.297,0.47-0.52,0.672-0.741 c1.502,1.767,1.032,2.285-1.343,1.481L51.172,83.784z M42.729,93.542c0.503-1.299,1.08-2.531,1.657-3.763 c1.656,0.557,3.235-0.441,4.806-3.066l0.035,0.706c0.095,0.49,0.042,0.848,0.069,1.412c-2.129,2.795-4.448,4.607-6.821,5.29 L42.729,93.542z M12.558,132.329c0.061-0.216-0.094-0.492-0.101-0.633l0.37,0.336L12.558,132.329z M16.614,126.962 c-0.921-0.025-0.727-0.389,0.51-1.158C19.499,126.608,19.304,126.972,16.614,126.962z"/>
   <path class="southchina" d="M223.471,306.141c-0.741-0.672-2.072-0.394-3.854,0.826c-1.988,1.301-3.952,1.68-5.965,1.07 c4.154-1.902,7.085-4.24,8.944-6.738c0.194-0.364,0.396-0.586,0.598-0.808c-2.225,0.816-3.121-0.131-2.681-2.701 c0.061-0.215,0.188-0.505,0.389-0.727c7.509-4.262,13.873-8.75,19.302-13.547c7.195-6.299,13.505-11.918,18.792-16.707 c4.139-3.672,7.147-7.288,9.174-10.715c0.651-1.165,1.323-1.905,2.009-2.363c0.208-0.082,0.41-0.304,0.678-0.6 c2.519-3.522,2.417-4.154-0.506-1.675c-0.173-3.531,1.553-5.881,4.968-6.969l-0.335,0.37c-0.205,3.055,1.381,2.198,4.766-2.428 c1.92-2.713,3-5.244,3.225-7.875c-2.28-0.312-4.565,0.72-6.775,3.306c-2.27,2.802-4.609,4.19-7.004,4.449 c-2.26,0.11-2.255-1.235,0.163-3.902c0.269-0.296,0.396-0.585,0.665-0.881c0.726-1.099,1.45-2.196,2.323-3.159 c-0.353-1.398-0.146-2.965,0.768-4.568c0.066-0.074-0.007-0.141-0.304-0.409c3.454-3.214,6.362-5.976,8.728-8.286 c0.343-0.229,0.544-0.451,0.745-0.674c0.181-0.646,0.631-1.588,1.645-2.558l0.371,0.335c0.729-2.442,1.891-4.765,3.186-7.235 l-0.646-0.181c-0.216-0.06-0.505-0.188-0.802-0.456c-2.307,0.608-3.974,1.257-5.069,2.019c-1.371,0.916-1.741,0.58-1.253-1.001 c0.158-0.268,0.317-0.493,0.477-0.735c-2.142,1.07-4.235,2.262-6.299,3.544c-3.533,4.21-7.133,8.157-10.807,11.811 c-0.201,0.222-0.402,0.444-0.672,0.741c-0.873,0.963-1.915,1.367-3.126,1.215c0.491-1.362,0.759-2.67,0.849-3.961 c-0.678,0.522-1.355,1.047-2.034,1.574c0.067,0.922-1.275,2.281-4.039,4.129c-2.265,1.457-4.622,3.907-7.073,7.355 c1.526-2.93,3.666-5.929,6.447-8.969c-6.181,2.416-13.414,2.168-19.486,0.245c0.081,0.119,0.155,0.235,0.24,0.359 c-0.066,0.073-0.06,0.215-0.329,0.511c-2.335,4.362-4.799,7.527-7.244,9.63c-0.276,0.154-0.478,0.376-0.747,0.673 c-0.507,2.645-1.681,4.685-3.59,6.193c0,0-0.074-0.066-0.371-0.336c-0.708,2.867-2.455,4.793-5.394,5.504 c-0.208,0.081-0.424,0.021-0.721-0.249c-1.579,0.998-2.943,2.056-4.173,2.966c-2.251,1.738-3.594,3.221-3.956,4.512 c-2.839-0.145-5.529-0.154-8.14,0.045l0.336-0.37c1.147-2.604,0.022-3.896-3.012-3.676c-0.848,0.042-1.836,0.09-2.825,0.138 c-0.848,0.043-1.794,0.938-2.707,2.54c-0.706,0.035-1.499,1.207-2.524,3.381c-0.511,1.157-1.168,2.181-2.108,3.218 c-0.227-0.489-0.437-0.975-0.646-1.46c-0.116,0.932-0.235,1.852-0.302,2.76c0.249-0.379,0.634-0.484,1.137-0.318 c0.216,0.061,0.351-0.088,0.552-0.31c2.422,0.306,4.643,0.834,6.796,1.437l-0.336,0.371c0.299,1.755,1.953,2.312,5.033,1.594 c0.209-0.081,0.484-0.236,0.686-0.458c-0.623,1.729-2.457,3.306-5.294,4.648c-0.275,0.155-0.551,0.31-0.82,0.606 c-2.785-0.5-5.698-0.713-8.456-0.647c-0.282,0.014-0.49,0.094-0.76,0.391c-1.733-0.398-3.292-0.977-4.676-1.736 c-9.552,9.403-15.576,24.521-14.734,38.678c1.548,0.006,3.083,0.078,4.594,0.244l-0.336,0.37c-0.485,1.736-1.812,2.531-3.95,2.49 c0.048,0.357,0.095,0.717,0.151,1.073c3.229-0.144,6.455-0.356,9.675-0.666c0.143-0.007,0.432,0.121,0.653,0.322 c-3.312,1.245-6.515,2.362-9.712,3.372c0.028,0.118,0.052,0.237,0.082,0.355c1.561-0.527,2.167,0.108,1.768,1.967l0.336-0.37 c4.776,0.687,9.505,0.385,14.111-0.975c0.209-0.08,0.484-0.235,0.686-0.458c1.247,2.347,3.192,3.03,6.043,1.97 c1.943-0.803,3.819-1.531,5.688-2.402c0.134-0.147,0.335-0.37,0.24-0.861c1.788-1.078,2.932-0.851,3.565,0.533l0.834-0.323 c0.135-0.148,0.356,0.053,0.579,0.255c0.989-0.049,1.809-0.655,2.756-1.551c0.269-0.297,0.47-0.52,0.672-0.741 c7.109-0.844,13.934-3.16,20.54-7.023L223.471,306.141z M206.498,268.884c-1.445,0.851-2.904,1.417-4.6,1.5 c-1.25,0.486-1.567-0.206-0.595-2.023c0.128-0.29,0.255-0.58,0.456-0.802c2.078-0.951,3.066-0.999,2.752-0.205 c-0.214,1.426,0.446,1.889,2.262,1.375L206.498,268.884z M211.261,264.97c-0.08-0.209,0.047-0.498,0.248-0.721 C211.398,266.308,211.27,266.598,211.261,264.97z M219.569,255.359l0.672-0.741c1.143-1.26,2.284-2.519,3.358-3.704 C223.314,253.76,221.971,255.241,219.569,255.359z M230.453,285.34c0.128-0.29,0.255-0.58,0.456-0.802 c2.085-0.81,3.968-1.397,5.581-1.689l-0.597,0.809c-3.15,3.623-6.31,5.619-9.686,6.066 C228.6,287.979,229.944,286.497,230.453,285.34z M236.041,273.668l0.181-0.646c0.128-0.29,0.255-0.58,0.456-0.802 C239.053,273.024,238.792,273.462,236.041,273.668z M274.87,215.06c0.343-0.229,0.544-0.452,0.746-0.674 c4.457-1.492,4.675,0.055,0.866,4.701c-1.544,1.704-4.024,3.1-7.515,4.12C269.833,220.616,271.82,217.828,274.87,215.06z M242.15,239.387c0.269-0.297,0.47-0.519,0.672-0.741c0.514,1.816,0.111,2.261-1.344,1.482L242.15,239.387z M235.788,245.362 c-0.08-0.209,0.046-0.498,0.248-0.721C235.924,246.7,235.796,246.99,235.788,245.362z M228.26,250.686 c-0.08-0.208,0.047-0.497,0.248-0.72C228.397,252.024,228.269,252.314,228.26,250.686z M232.291,246.241 c-0.08-0.209,0.047-0.498,0.248-0.721C232.427,247.579,232.299,247.869,232.291,246.241z M215.213,267.607l0.672-0.74 c0.269-0.297,0.47-0.519,0.671-0.741C217.071,267.942,216.667,268.386,215.213,267.607z M224.222,263.627l0.671-0.741 c0.27-0.296,0.471-0.519,0.672-0.74C226.08,263.961,225.676,264.405,224.222,263.627z M231.453,258.034 c-0.276,0.155-0.551,0.31-1.116,0.338c0.269-0.297,0.396-0.586,0.456-0.802c0.121-0.43,0.241-0.86,0.146-1.352 c-0.202,0.222-0.403,0.444-0.672,0.74c-0.201,0.223-0.403,0.444-0.672,0.741c-0.223-0.201-0.444-0.402-0.741-0.672 c-0.881-0.665-0.924-1.513-0.138-2.825c3.357,0.615,4.803-0.234,4.194-2.541c-0.014-0.283,0.12-0.431,0.544-0.452 c1.211,0.154,2.503,0.515,3.667,1.166c-0.405,3.277-1.654,5.249-3.961,5.857l0.383-0.868 C234.107,255.852,233.407,256.027,231.453,258.034z M230.829,259.764c-0.08-0.208,0.047-0.498,0.248-0.72 C230.965,261.102,230.837,261.392,230.829,259.764z M223.071,277.701c-2.004,1.018-2.402,0.118-1.121-2.636 C224.326,275.869,224.723,276.771,223.071,277.701z M225.87,274.165c-0.079-0.208,0.047-0.497,0.249-0.72 C226.006,275.504,225.879,275.794,225.87,274.165z M227.179,271.978c-0.08-0.208-0.162-0.417-0.458-0.686 c-2.669,1.9-5.505,3.243-8.303,3.946l-0.034-0.706c0.047-0.498,0.025-0.922-0.069-1.413c2.516-0.689,4.659-1.715,6.716-3.089 c0.336-0.371,0.82-0.606,1.378-0.775c2.629-1.262,3.719-0.678,3.137,1.898C228.338,273.974,227.505,274.299,227.179,271.978z M225.336,277.731c-0.08-0.208,0.047-0.498,0.248-0.72C225.473,279.069,225.346,279.359,225.336,277.731z M230.71,271.805 c-0.08-0.208,0.047-0.498,0.248-0.72C230.847,273.143,230.719,273.433,230.71,271.805z M241,259.266l0.18-0.646 c0.129-0.29,0.256-0.579,0.457-0.802c2.245-1.88,2.041-3.144-0.543-3.867l0.336-0.37c-0.019-3.256,1.229-6.715,3.827-10.027 c0.194-0.364,0.396-0.587,0.598-0.809c2.367-0.824,4.604-2.845,6.86-5.929c0.194-0.364,0.396-0.586,0.598-0.808 c2.388-0.4,4.634-0.793,6.657-1.389l-0.336,0.371c-0.817,2.093-2.066,4.065-3.961,5.857l0.323,0.834 c0.075,0.067,0.015,0.282-0.254,0.578c-2.58,2.251-3.747,4.432-3.57,6.617c0.007,0.142-0.053,0.356-0.321,0.653 c-2.507,2.317-4.171,4.452-4.849,6.537c-0.06,0.217-0.188,0.505-0.456,0.802C244.649,257.176,242.774,257.904,241,259.266z M197.917,311.993l0.336-0.37C200.724,312.918,200.589,313.066,197.917,311.993z M201.113,312.191l0.181-0.646 c0.128-0.29,0.255-0.58,0.457-0.802C204.186,311.333,203.924,311.771,201.113,312.191z M230.009,280.618 c-0.208,0.081-0.424,0.021-0.72-0.248c0.549-1.797,1.617-3.124,3.276-3.913c0.276-0.155,0.552-0.311,0.753-0.532 c-2.294-0.596-2.194-1.449,0.36-2.778c0.067-0.074,0.269-0.297,0.389-0.727c0.128-0.29,0.255-0.58,0.456-0.802 C237.235,276.37,235.752,279.346,230.009,280.618z M204.61,311.312l0.181-0.646c0.128-0.289,0.255-0.579,0.456-0.801 C207.683,310.454,207.421,310.891,204.61,311.312z M208.496,309.706c-0.08-0.209,0.047-0.498,0.248-0.721 C208.632,311.044,208.504,311.334,208.496,309.706z M210.191,309.623l0.254-0.579c0.256-0.578,0.652-1.165,1.055-1.609 C213.875,308.239,213.413,308.899,210.191,309.623z"/>
   <path class="pacific" d="M165.325,313.073c-0.057-0.356-0.104-0.716-0.151-1.073c-0.514-0.011-1.061-0.054-1.67-0.162 c-1.857-0.334-3.647-0.741-5.43-1.008c-1.003-0.234-0.814-0.739,0.422-1.508c2.146-0.31,4.271-0.435,6.37-0.427 c-0.842-14.156,5.183-29.274,14.734-38.678c-3.076-1.686-5.3-4.265-6.691-7.76c-0.007-0.141,0.054-0.357,0.255-0.579 c2.181,1.168,4.518,2.611,6.935,4.263c0,0,0.134-0.148,0.335-0.371c1.427,0.214,2.846,0.285,4.325,0.143 c0.143-0.007,0.432,0.12,0.653,0.322c-0.003-0.751,0.113-1.271,0.327-1.595c0.066-0.908,0.186-1.828,0.302-2.76 c-0.89-2.057-1.617-4.084-2.062-6.124c-0.155-0.275-0.236-0.484-0.533-0.753c-0.034-0.706-1.085-1.929-3.233-3.877 c-1.63-1.478-2.844-3.117-3.572-4.993c1.946-3.635,4.808-7.386,8.663-11.044c0.269-0.296,0.47-0.519,0.672-0.74 c1.211,0.152,2.401-0.118,3.423-0.946c0.343-0.229,0.544-0.452,0.745-0.674c2.249,1.094,4.435,0.916,6.625-0.607 c0.067-0.074,0.216,0.061,0.438,0.262c-0.743,2.16,0.233,3.316,2.998,3.393c1.605-1.919,3.254-1.504,5.013,1.171 c1.364-1.059,2.749-1.691,4.155-1.903c0.209-0.08,0.483-0.235,0.686-0.458c1.734-0.722,2.756-1.551,3.057-2.627l0.37,0.336 c1.849-1.294,2.5-2.459,2.37-3.656c-0.014-0.282,0.047-0.498,0.248-0.72c1.023,0.657,2.065,0.253,3.126-1.215l0.371,0.336 c0.757-1.879,2.073-3.925,3.961-5.858c0.269-0.296,0.47-0.519,0.671-0.74c0.03,0.028,0.062,0.056,0.093,0.084 c-3.057-9.685-10.996-17.521-17.08-26.313c-3.42,3.206-7.221,6.071-11.342,8.644c-0.275,0.155-0.551,0.31-0.82,0.606 c-3.996-0.653-8.013-1.731-12.052-3.232c-1.662-0.698-1.703-1.545-0.266-2.536c3.066-0.999,4.174-2.965,3.255-5.823l0.625-0.243 c0.35-0.088,0.552-0.311,0.753-0.532c-0.576-3.087-2.039-5.493-4.173-7.158c-0.075-0.067-0.142,0.006-0.41,0.303 c-2.61,0.199-4.391,1.419-5.202,3.653c-0.308,0.935-0.947,0.896-1.723-0.482c-4.543-1.689-5.893-4.667-3.833-8.874 c0.195-0.363,0.322-0.653,0.523-0.875c0.234-1.003-0.641-1.526-2.558-1.645l0.336-0.371c2.888-3.185,4.148-6.362,3.862-9.321 c-0.074-0.067-0.223-0.201-0.445-0.403c-0.414-0.312-0.659-0.666-0.758-1.048c-5.316-1.165-9.325-5.519-13.056-9.927 c-0.006,0.202,0.012,0.406-0.003,0.607c-0.128,0.29-0.188,0.505-0.456,0.802c-2.114-1.242-4.362-2.335-6.396-3.369 c-0.289-0.127-0.579-0.255-0.875-0.523c-0.124-2.542-2.011-4.928-5.667-7.297c-0.215-0.061-0.445-0.403-0.667-0.604 c-3.692-4.562-7.303-8.917-10.982-13.197c-1.822,0.372-3.705,0.96-5.433,1.824c-0.275,0.154-0.551,0.31-0.82,0.605 c-0.646-0.181-1.366-0.429-2.019-0.75c-0.29-0.127-0.579-0.255-0.875-0.523c-2.577-0.582-5.126-0.599-7.648-0.051 c-0.35,0.089-0.558,0.169-0.827,0.466c-0.662-1.95-1.807-3.664-3.438-5.142c-1.326-1.068-1.241-2.205,0.198-3.195 c-0.386-1.152-0.973-1.996-1.733-2.564c-1.953,1.454-4.041,2.728-6.459,3.412c-0.398-0.361-1.187-0.299-2.058-0.368 c0.361,0.44,0.029,0.945-0.98,1.486c-3.941,0.476-7.792,2.788-11.695,6.943c-0.201,0.223-0.403,0.444-0.672,0.741 c0.681,0.888,0.426,1.466-0.973,1.817l0.37,0.336c-1.968,1.725-4.004,3.523-6.04,5.322c-0.275,0.155-0.477,0.377-0.746,0.674 c-2.223-2.016-4.281-2.127-6.317-0.328c-0.275,0.155-0.477,0.377-0.746,0.674c-2.019-0.751-3.58-0.816-4.467-0.135 c-0.268,0.296-0.692,0.316-1.116,0.338c-2.267-0.031-2.218,0.957,0.071,2.898c-1.997,1.16-3.758,1.316-5.361,0.404 c-0.215-0.061-0.49,0.095-0.961,0.613c-0.402,0.444-0.873,0.963-1.343,1.481c-4.937,0.383-8.438-1.71-10.442-6.497 c-0.014-0.282-0.236-0.484-0.532-0.753c-0.055-1.13-1.28-1.565-3.601-1.239c-0.423,0.021-0.928-0.167-1.447-0.638 c-0.444-0.403-0.963-0.873-1.481-1.343c-1.988,2.787-4.248,2.897-7.062,0.346l-0.707,0.034c-0.423,0.021-0.928-0.167-1.447-0.637 c-1.383,2.12-2.235,3.507-2.692,4.309c-0.127,0.289-0.329,0.511-0.598,0.808c-0.132,1.635-0.83,3.298-1.951,4.98 c-0.127,0.289-0.329,0.512-0.598,0.808c1.53,2.333,1.641,4.593,0.271,6.996c-0.127,0.289-0.329,0.511-0.597,0.808 c-0.637,1.447-2.547,1.47-5.516,0.129c-0.29-0.127-0.579-0.255-0.875-0.523c-0.469-3.8-0.024-7.716,1.478-11.754 c0.06-0.216-0.162-0.417-0.809-0.598c-0.074-0.066-0.282,0.014-0.551,0.311c-1.45,2.194-2.063,1.233-1.908-2.81 c-0.001-0.045-0.016-0.099-0.037-0.155c-0.59,0.324-1.192,0.63-1.804,0.922c0.036,0.032,0.077,0.064,0.113,0.097 c0.893,3.779,0.446,6.208-1.402,7.502l0.335-0.37c-2.498-1.86-3.728-0.95-3.743,3.086c0.007,0.142,0.162,0.417,0.384,0.618 c-1.815,0.514-2.378,2.027-1.696,4.402c1.042,3.913,1.093,7.875-0.058,11.825c-0.114,0.571-0.227,1.144-0.482,1.723 c-0.1,0.854,0.224,1.688,1.12,2.635c-1.814,2.001-2.766,4.242-2.85,6.865l-0.37-0.336c-1.73-0.623-2.176-2.513-1.474-5.52 c0.415-1.649-0.104-2.119-1.697-1.404c-2.106-1.101-2.624-0.084-1.832,3.063c0.243,0.624,0.277,1.331,0.238,1.97 c-0.179,2.133,0.065,4.245,0.526,6.417c0.583,3.229,0.08,4.527-1.737,3.554c0.344-4.547-1.064-5.823-4.008-3.768 c0,0-0.141,0.007-0.437-0.262c-0.908,0.256-1.047,1.75-0.633,4.42c0.956,5.051,1.561,10.189,1.601,15.354 c1.28,1.565,2.137,3.152,2.57,4.76c0.154,0.275,0.31,0.551,0.532,0.752c-0.378,3.842,0.515,7.621,2.759,11.547 c0.998,1.579,2.009,3.441,3.102,5.512c0.775,1.378,2.465,2.64,5.063,3.646c0.269-0.297,0.47-0.519,0.672-0.741 c0.519,0.471,0.896,0.947,1.064,1.506c0.148,0.135,0.014,0.282-0.255,0.579c3.075,4.946,6.195,9.396,9.503,13.34 c0,0-0.067,0.073-0.336,0.37c1.778,1.612,3.415,3.23,4.85,5.072c0,0-0.067,0.074-0.336,0.37c1.771,1.472,3.387,2.666,5.124,3.431 c0.215,0.061,0.511,0.329,0.733,0.53c-0.59,0.949-0.185,1.991,1.215,3.127l-0.335,0.37c1.481,1.344,2.896,2.761,4.035,4.333 c0.074,0.067,0.007,0.142-0.262,0.438c0.021,0.424-0.032,0.78-0.301,1.077l-0.37-0.336c0.696,2.656,2.34,4.417,5.005,5.348 c0.141-0.007,0.364,0.195,0.586,0.396c14.434,14.302,28.816,24.642,43.22,31.087c1.016,0.517,2.16,0.743,3.304,0.971 c2.108,2.587,5.252,4.628,9.433,6.122c7.288,2.829,14.61,4.878,21.837,6.436c1.144,0.228,2.146,0.461,3.216,0.621 c6.781,1.155,13.476,1.96,20.088,2.556c2.078-0.95,3.441-2.009,4.174-2.965c0.194-0.364,0.396-0.586,0.598-0.809 C156.659,313.316,160.996,313.265,165.325,313.073z M19.815,151.866l0.181-0.646c0.128-0.29,0.255-0.579,0.457-0.801 C22.828,151.224,22.641,151.729,19.815,151.866z M42.974,140.468l0.336-0.371C44.96,141.998,44.826,142.146,42.974,140.468z M75.034,146.048c-0.134,0.148-0.478,0.378-0.968,0.473c-2.657,0.696-3.397,0.025-2.229-2.156 C75.192,143.491,76.283,144.075,75.034,146.048z M28.857,183.282c-0.08-0.209,0.047-0.498,0.249-0.721 C28.994,184.62,28.866,184.91,28.857,183.282z M29.391,179.716c-0.081-0.209,0.046-0.498,0.248-0.72 C29.528,181.054,29.4,181.344,29.391,179.716z M29.252,176.891c-0.08-0.208,0.047-0.498,0.249-0.72 C29.389,178.229,29.261,178.519,29.252,176.891z M29.442,167.749c-0.014-0.283,0.114-0.572,0.315-0.794 C29.646,169.013,29.518,169.303,29.442,167.749z M29.837,161.357c-0.013-0.282,0.114-0.571,0.315-0.794 C30.186,165.589,30.125,165.805,29.837,161.357z M10.424,181.281c-0.081-0.208-0.021-0.424,0.181-0.646 C11.026,183.447,10.965,183.662,10.424,181.281z M18.307,216.506c-1.659-3.529-3.319-7.059-5.045-10.514 c0.568-2.86,0.006-5.664-1.894-8.332c-0.155-0.275-0.378-0.478-0.674-0.746c-0.141-4.312-0.132-8.488-0.199-12.733 c-0.08-0.208,0.047-0.498,0.248-0.72c0.871,1.868,1.243,3.691,1.407,5.595c-0.061,0.216-0.188,0.505-0.389,0.727 c2.292,3.428,3.454,6.911,3.767,10.436c-0.06,0.215-0.12,0.43-0.389,0.727c1.53,2.332,2.63,4.544,3.379,6.844 c0.155,0.275,0.31,0.551,0.532,0.752c-0.59,0.949-0.684,1.945-0.279,2.987c0.148,0.135,0.014,0.282-0.254,0.579 c2.669,3.904,4.558,7.776,5.814,11.75c0.08,0.209,0.236,0.484,0.458,0.686C22.238,223.039,20.055,220.385,18.307,216.506z M26.884,231.165l0.335-0.37C28.877,232.838,28.81,232.912,26.884,231.165z M51.549,265.002c2.465,2.64,2.331,2.788-0.336,0.37 L51.549,265.002z M49.267,269.007l0.335-0.37C53.625,272.688,53.49,272.836,49.267,269.007z M59.569,276.998l0.336-0.37 c3.41,0.258,6.912,2.351,10.71,6.201c0.155,0.275,0.444,0.402,0.808,0.598c2.545,1.361,3.817,2.785,3.9,4.48 C70.027,285.264,64.822,281.626,59.569,276.998z M76.401,288.209l0.336-0.37C78.462,289.808,78.328,289.956,76.401,288.209z M162.874,268.613c-1.52,0.781-1.963,0.379-1.475-1.203C164.224,267.272,164.743,267.742,162.874,268.613z M189.264,229.232 c0.47-0.519,0.94-1.037,1.343-1.481c1.315,2.271,0.644,3.013-2.015,2.223L189.264,229.232z M168.471,223.879 c2.79-0.845,3.31-0.374,1.623,1.337c-0.544,0.451-1.176,0.553-2.038,0.312C167.121,225.22,167.235,224.648,168.471,223.879z M164.534,227.329c-1.606,0.432-1.634-0.133-0.23-1.83C167.72,225.898,167.755,226.604,164.534,227.329z M158.653,225.775 c4.367,0.99,4.133,1.993-0.568,2.86l-0.304-0.41C157.101,227.339,157.417,226.545,158.653,225.775z M82.48,292.371 c-1.716-0.341-2.463-1.153-2.109-2.587c2.416,0.165,3.378,1.038,2.963,2.687L82.48,292.371z M117.316,305.462 c-0.216-0.06-0.505-0.188-0.802-0.456c-0.641-1.526-2.392-2.573-5.109-3.148c-5.942-1.338-11.884-2.675-17.906-4.221 c-2.378-2.29-4.788-3.8-7.083-4.396c-1.655-0.556-1.764-1.329-0.326-2.32c3.723,2.296,7.291,4.315,10.913,5.979 c0.289,0.127,0.511,0.329,0.733,0.53c0.989-0.049,1.904-0.164,2.744-0.347c0.277-0.155,0.484-0.236,0.753-0.532 c6.798,2.923,13.508,5.498,20.13,7.723c0.357,0.053,0.579,0.254,0.801,0.456c1.855-1.152,3.786-0.752,5.72,1.136 c0.296,0.269,0.519,0.47,0.741,0.672C124.878,306.648,121.11,306.338,117.316,305.462z M138.114,309.47 c-0.29-0.126-0.579-0.254-0.875-0.523c-0.201,0.223-0.41,0.304-0.619,0.385c-3.552-0.251-6.015-1.404-7.323-3.535 c2.45,0.871,4.812,1.393,7.146,1.35c0.216,0.06,0.504,0.188,0.727,0.389c0.202-0.222,0.471-0.519,0.672-0.74 C141.834,310.279,141.809,311.201,138.114,309.47z M143.293,309.712l0.336-0.37C145.354,311.311,145.22,311.459,143.293,309.712z M152.371,311.463c-0.357-0.053-0.572-0.113-0.869-0.383c-0.201,0.223-0.477,0.378-0.618,0.385 c-3.746,0.112-5.423-0.867-5.17-2.933c1.765,1.329,3.474,1.529,5.141,0.881c0.135-0.148,0.356,0.054,0.579,0.255 c0.269-0.297,0.47-0.519,0.671-0.741c0.27-0.297,0.471-0.519,0.672-0.74C156.029,311,155.87,312.07,152.371,311.463z"/>
   <path class="indian" d="M231.441,224.549c0.357,0.053,0.579,0.255,0.801,0.456c0.095,0.588,0.652,1.712,1.709,3.298 c6.072,1.923,13.306,2.171,19.486-0.245c0.875-0.957,1.81-1.918,2.813-2.883c0.343-0.229,0.544-0.452,0.745-0.674 c0.71,0.244,1.073,0.59,1.106,1.041c0.679-0.527,1.356-1.052,2.034-1.574c0.023-0.346,0.041-0.693,0.039-1.038 c-0.08-0.209,0.047-0.498,0.248-0.721c2.649-0.838,4.269-2.475,4.917-5.125c0.128-0.29,0.255-0.579,0.457-0.802 c2.851-1.06,5.854-3.33,8.944-6.738c3.298-3.489,5.307-5.853,5.957-7.018c1.039-1.892,1.315-2.046,0.686-0.458 c0.011,3.114-1.882,6.393-5.462,9.896c-0.276,0.155-0.478,0.377-0.746,0.674c-0.426,0.519-0.857,1.016-1.284,1.524 c2.063-1.282,4.157-2.474,6.299-3.544c2.092-3.179,4.346-4.139,6.71-2.873c0,0,0.208-0.081,0.41-0.304 c3.004-2.271,5.892-5.456,8.806-9.563c0.194-0.364,0.396-0.586,0.598-0.808c-1.892-1.04-2.204-3.078-1.092-6.389 c0.322-0.653,0.57-1.374,0.677-2.087c3.335-1.296,4.771-3.773,4.315-7.291c-0.014-0.282,0.047-0.498,0.248-0.72 c1.304-0.843,2.277-2.66,2.905-5.735c0.373-2.495,1.177-4.871,2.122-7.254c-0.008-1.628-0.278-2.818-0.879-3.497 c-0.222-0.201-0.444-0.402-0.741-0.672c-0.057-2.616-0.114-5.232-0.03-7.856c-0.006-0.142-0.088-0.35-0.384-0.618 c-2.255-1.235-3.638-3.433-3.878-6.89c-0.068-1.413-0.997-1.579-2.859-0.568c-0.254-3.739-1.386-5.171-3.402-4.435l0.37,0.336 c-1.482,2.976-2.879,4.813-4.122,5.44c-0.143,0.007-0.283,0.014-0.58-0.255c-0.458-0.686-0.856-1.586-1.268-2.77 c-0.508-1.674-0.865-3.214-1.231-4.896c0.873-0.963,1.391-1.979,1.563-2.767c0.055-0.356,0.113-0.572,0.383-0.869 c-0.585-4.714-0.746-9.449-0.134-14.294c0.232-2.489,0.391-5.045,0.622-7.534c0.166-2.416,0.256-4.897,0.213-7.231 c-2.302-0.737-3.878-2.571-4.723-5.361c-0.088-0.35-0.236-0.484-0.532-0.753c0.581-2.577,0.033-5.099-1.563-7.357 c-1.834-2.742-2.953-5.377-3.436-7.974c-3.865-3.774-6.971-6.454-9.232-7.83c-0.215-0.061-0.512-0.33-0.667-0.604 c-3.065-3.319-5.644-5.388-7.812-6.273c2.804,3.758,5.074,6.761,6.873,8.797c0.229,0.343,0.452,0.544,0.674,0.745 c0.15,1.621-0.621,3.217-2.18,4.639c-0.067,0.073-0.142,0.007-0.438-0.263c-2.575,0.905-5.125,0.888-7.925,0.105 c-0.073-0.067-0.281,0.013-0.551,0.31c-3.13-1.758-6.186-3.449-9.229-4.857c-0.869-0.382-1.677-0.98-2.417-1.651 c-0.788-0.174-0.605,0.667,0.622,2.589c0.991,1.438,1.914,2.951,2.549,4.335c3.915,0.445,7.141,2.695,9.891,6.809 c0.007,0.141-0.061,0.214-0.329,0.511c-0.603,2.153-2.027,3.427-3.924,3.732c-0.141,0.007-0.06,0.215,0.103,0.632 c0.397,0.9-0.362,1.292-2.293,0.891c0.027,0.565-0.032,0.78-0.302,1.077l-0.37-0.336c-0.269,0.297-0.336,0.37-0.409,0.304 c-1.893-1.041-3.594-1.1-5.241-0.027c-0.269,0.297-0.402,0.444-0.679,0.601c-0.624,0.242-1.519,0.781-2.748,1.691 c-0.27,0.297-0.329,0.512-0.383,0.868c-0.552,4.629-0.815,9.385-1.011,14.066c-0.201,0.223-0.409,0.304-0.551,0.311 c-2.496-0.373-4.823-0.188-7.183,0.776c-0.202,0.223-0.329,0.512-0.249,0.721c0.051,2.475-1.809,4.973-5.728,7.359 c-0.222-0.201-0.37-0.336-0.438-0.262c-1.996,1.159-3.933,2.104-5.815,2.691c-0.222-0.201-0.444-0.402-0.74-0.671 c-0.387-0.252-0.781-0.483-1.176-0.717c-3.94,10.16-3.388,21.772-7.649,32.037c-1.204,2.25-3.518,4.012-5.918,5.571 c0.825,1.119,2.338,2.461,4.707,3.953c0.297,0.269,0.52,0.47,0.741,0.671c0.314,3.525-0.489,5.901-2.404,7.269 c-0.202,0.223-0.478,0.377-0.747,0.674c0.454,2.031,0.946,3.423,1.62,4.168c0.297,0.27,0.519,0.471,0.741,0.672 c-0.084,2.624-0.591,5.268-1.308,7.993c0.007,0.142,0.088,0.35,0.31,0.551c-0.906,0.969-1.851,1.901-2.822,2.812 c6.084,8.793,14.023,16.629,17.08,26.313C226.383,222.499,228.755,223.843,231.441,224.549z M286.94,156.487l0.106-0.713 c0.133-1.635,0.756-3.364,1.735-5.041C290.851,153.96,290.162,155.763,286.94,156.487z M246.793,130.347 c-0.208,0.081-0.483,0.236-0.753,0.532c0.09,1.836-1.281,2.754-4.046,2.677c-0.282,0.014-0.497-0.047-0.794-0.315 c-1.646-3.246-1.191-5.534,1.49-7.152c0.41-0.303,0.672-0.741,0.779-1.454c0.12-0.431,0.167-0.929,0.071-1.42 c2.711,0.434,5.2,0.666,7.817,0.609c0.216,0.06,0.505,0.188,0.727,0.389C251.175,127.301,249.436,129.368,246.793,130.347z"/>
  <path class="atlantic" d="M212.324,159.879c4.262-10.265,3.709-21.877,7.649-32.037c-1.766-1.043-3.587-1.896-5.354-2.504 c0.269-0.297,0.329-0.511,0.389-0.727c-0.43-4.439-0.792-8.952-1.08-13.398c-0.223-0.201-0.378-0.477-0.392-0.76 c-0.514-1.814-1.592-3.604-3.451-5.424c0.27-0.296,0.471-0.519,0.457-0.801c0.996-4.226,0.93-8.47-0.407-12.652 c-0.223-0.201-0.378-0.477-0.674-0.745c-1.981-2.877-4.204-4.893-6.734-5.972c0.269-0.297,0.544-0.451,0.819-0.606 c0.834-0.324,0.758-1.878-0.355-4.372c-0.222-0.201-0.512-0.329-0.727-0.389c-3.068-0.487-5.377-1.366-7.215-2.762 c-0.721-0.249-1.212-0.153-1.695,0.083c-2.937,2.196-5.963,2.557-8.864,1.142c-2.627,2.748-5.431,3.31-8.339,1.754 c-4.369-2.477-8.697-4.105-13.057-4.954c-0.222-0.201-0.304-0.41-0.243-0.625c0.406-3.277-0.747-5.132-3.6-5.559 c-0.222-0.201-0.377-0.477-0.532-0.753c-0.986-2.783-0.768-5.555,0.789-8.463c0.27-0.297,0.403-0.444,0.255-0.579 c-1.154-3.342-1.131-5.749,0.071-7.225c-0.444-0.403-1.03-0.799-1.542-1.128c-0.653-0.322-1.15-0.368-1.493-0.14 c-1.499,1.206-3.066,1-4.838-0.471c-1.22-1.781-2.68-2.701-4.375-2.617c-0.681-0.888-0.218-1.548,1.53-1.987 c2.663-0.555,4.235-1.693,4.584-3.269c-0.433-1.607-1.94-2.028-4.321-1.487c-1.607,0.433-3.234,0.441-4.964-0.182 c0.269-0.297,0.47-0.519,0.82-0.606c1.028-0.688,2.198-1.382,3.279-2.426c-0.072-0.066-0.122-0.149-0.179-0.229 c-0.986,0.18-1.979,0.268-2.981,0.137c-1.301,0.705-2.666,1.661-4.068,2.854c-0.067,0.074-0.141,0.007-0.438-0.262 c-0.521-1.957-2.197-2.937-5.029-2.939c-0.283,0.014-0.49,0.095-0.759,0.391c0.169,0.559,0.432,1.607,0.71,2.939 c0.162,0.417-0.04,0.639-0.665,0.882c-0.833,0.323-1.674,0.507-2.663,0.555c-0.292-1.613-0.375-3.309-0.242-4.943l-0.625,0.242 c-0.794,0.294-1.468,0.387-2.02,0.287c-7.66,10.355-22.024,11.426-33.003,17.945c-1.263,0.711-2.068,1.552-2.77,2.464 c0.561,1.247,0.812,2.429,0.679,3.563c-2.003,1.019-4.161,1.761-6.273,2.006c-0.841,0.184-2.542,0.125-4.958-0.04l-0.336,0.37 c-0.736-2.017-2.331-2.788-4.711-2.247c-0.498-0.047-0.773,0.108-1.042,0.405c-0.201,0.222-0.335,0.37-0.335,0.37 c-2.818,0.279-5.608,1.124-8.372,2.534c-0.202,0.222-0.403,0.443-0.598,0.808c-2.472,3.023-3.884,3.093-4.312,0.141 c-0.23-0.441-0.374-0.886-0.432-1.333c-0.286,0.173-0.571,0.344-0.854,0.511c0.074,1.235-0.39,2.496-1.401,3.785 c-0.201,0.223-0.402,0.444-0.671,0.741c0.245,2.112,0.349,4.23,0.311,6.356l0.371,0.335l-0.336,0.371 c1.892,1.04,3.828,0.096,5.586-3.034c0.269-0.297,0.396-0.586,0.598-0.809c1.681-0.365,3.302-0.516,4.997-0.599 c0.142-0.007,0.431,0.121,0.653,0.322c3.527-3.146,4.866-3.283,4.022-0.269c0.014,0.283-0.188,0.505-0.457,0.802 c2.126,0.037,3.015,0.843,2.593,2.351l-0.37-0.336c-2.876,1.982-5.88,4.253-8.796,6.873c-0.275,0.155-0.477,0.377-0.746,0.674 c0.496-1.44,0.709-2.866,0.99-4.367c0.26-1.924-0.608-2.307-2.679-1.214c-3.914,1.042-4.671,2.919-2.273,5.634 c0.674,0.745,0.507,1.674-0.508,2.645c-0.201,0.222-0.254,0.578-0.301,1.076c1.378-0.775,2.696-1.335,3.833-1.249l-0.336,0.37 c-2.513,2.176-4.125,3.954-4.776,5.118c-0.127,0.29-0.329,0.512-0.598,0.809c-1.288,2.611-1.795,5.256-1.389,7.785 c0.014,0.282,0.169,0.558,0.391,0.759c3.584-0.529,7.234-2.619,10.957-6.129c0.067-0.074,0.208-0.081,0.342-0.229 c1.862-1.012,2.441-0.757,1.878,0.758c2.635-1.12,2.566-2.532-0.208-4.237l0.382-0.869c0.194-0.362,0.315-0.794,0.22-1.284 c-2.753-1.281-4.161-2.558-4.088-3.978c-0.014-0.282,0.114-0.571,0.315-0.794c2.941-3.542,5.987-4.966,9.129-4.412 c0.215,0.062,0.35-0.087,0.551-0.31c-0.474-2.454,0.809-3.721,4.051-4.021c0.989-0.048,1.924,0.261,2.874,0.851 c1.841-1.435,3.71-2.306,5.6-2.752c0.216,0.061,0.431,0.121,0.653,0.322c1.616,1.195,1.248,2.347-0.964,3.445 c-0.135,0.148-0.41,0.304-0.537,0.593c-2.666,3.387-2.852,5.379-0.84,5.988c2.399-1.604,2.844-1.201,1.408,1.275 c-0.127,0.29-0.329,0.512-0.598,0.809c-0.672,0.74-1.518,2.269-2.692,4.309c-0.127,0.289-0.329,0.512-0.598,0.808 c-0.063,3.048-0.268,6.102-0.539,9.23c-0.061,0.215-0.12,0.43-0.389,0.727c2.839,0.145,3.399,1.462,1.754,4.021 c-0.134,0.148-0.201,0.222-0.269,0.296c-1.744,3.413-0.792,5.49,2.564,6.104c2.378,2.29,1.699,2.891-1.693,1.569 c-0.936-0.308-1.762,0.157-2.406,1.464c-2.299,0.749-3.279,2.426-2.939,5.028c0.013,0.283,0.169,0.559,0.391,0.76 c-1.58,0.997-2.742,1.833-3.354,2.358c-0.275,0.155-0.477,0.377-0.746,0.674c0.648,1.667,0.657,3.296-0.034,5.099 c-0.06,0.216,0.088,0.351,0.31,0.552c0.696,2.656,2.676,4.046,5.872,4.243c0.215,0.06,0.505,0.188,0.727,0.39 c2.682-1.618,3.613-4.283,2.942-7.861c-0.155-0.275-0.236-0.483-0.532-0.753c2.365-2.31,4.221-1.977,5.719,1.137l0.671-0.741 c0.47-0.519,0.941-1.037,1.343-1.481c1.906-1.41,3.283-0.935,4.142,1.265c2.444-1.165,4.648-2.992,6.932-4.911 c0.126-0.704,0.08-1.75-0.151-3.189c-0.19-0.981,0.542-1.938,2.047-3.003c2.296,2.083,3.035,1.268,2.438-2.243 c-0.014-0.282,0.047-0.498,0.248-0.72c2.131-1.309,4.201-2.4,6.413-3.5c2.218-0.958,4.471-1.21,6.833-0.688 c2.747-3.179,5.457-4.231,8.344-3.099c0.289,0.127,0.511,0.329,0.733,0.53c0.852,2.932,1.847,3.024,3.196,0.197l0.37,0.336 c1.364-1.058,2.756-1.551,4.182-1.337c0.216,0.06,0.505,0.188,0.727,0.389c0.947-0.896,1.834-1.577,2.743-1.833 c0.208-0.081,0.483-0.236,0.686-0.458c2.926,0.494,5.759,0.496,8.562-0.065c0.216,0.06,0.431,0.12,0.653,0.321 c-0.158,2.557-0.383,5.188-0.609,7.817c-0.06,0.216-0.12,0.431-0.389,0.728c2.479,2.923,3.189,5.861,2.354,9.017 c0.014,0.283-0.188,0.505-0.457,0.802c-2.851,1.061-3.453,3.214-1.599,6.379c0.08,0.209,0.31,0.552,0.532,0.753 c-0.737,2.302-1.05,4.582-0.717,7.044c0.013,0.282,0.169,0.558,0.391,0.76c-2.709,1.053-2.883,1.84-0.663,2.368 c0.283-0.014,0.579,0.255,0.802,0.456c-1.357,1.199-2.075,2.438-2.161,3.575c-0.128,0.29-0.188,0.505-0.457,0.801 c0.083,1.695,0.213,2.893,0.389,3.593c0.468,2.312,1.666,3.67,3.523,4.004c1.137,2.138,1.598,4.247,1.546,6.325 c3.73,4.408,7.739,8.762,13.056,9.927c-0.11-0.433-0.028-0.902,0.284-1.406c1.387,0.477,2.438,1.045,3.164,1.707 c0.004,0,0.008,0,0.013,0c-0.005,0-0.009,0-0.013,0c1.54,1.402,1.613,3.232,0.236,5.56c-0.061,0.216-0.262,0.438-0.531,0.734 c-0.201,0.222-0.254,0.578-0.301,1.076c1.287,1.708,3.709,2.014,7.05,0.858c0.351-0.088,0.552-0.31,0.753-0.532 c2.937-2.196,3.405-4.202,1.472-6.09l0.336-0.37c2.654-2.184,4.468-4.183,5.448-5.859c0.269-0.297,0.396-0.586,0.598-0.809 c2.839,0.145,5.771,0.779,8.875,1.974c0.074,0.066,0.208-0.082,0.41-0.304c0.891,2.292,2.426,3.279,4.463,2.967 c0.216,0.061,0.432,0.121,0.653,0.322c0.119,0.235,0.285,0.488,0.479,0.749C208.806,163.891,211.12,162.129,212.324,159.879z M67.597,78.024c-0.08-0.209,0.047-0.498,0.249-0.721C67.734,79.362,67.606,79.652,67.597,78.024z M99.175,75.204 c-0.416,0.161-0.826,0.465-1.304,0.843c-1.976,1.583-2.823,1.624-2.475,0.05c0.415-1.649,1.08-2.53,2.008-2.364l0.181-0.646 c0.128-0.29,0.255-0.579,0.457-0.801C100.936,73.56,101.267,74.535,99.175,75.204z M102.734,110.285 c-2.687,2.964-5.173,4.218-7.596,3.912l0.672-0.741c0.269-0.296,0.47-0.519,0.671-0.74c2.346-1.248,4.564-2.206,6.588-2.801 L102.734,110.285z M104.429,110.202c-1.223,1.052-1.042,0.405,0.765-1.736c0.127-0.289,0.322-0.653,0.368-1.15 c0.107-0.713,0.355-1.434,0.461-2.146C108.466,105.898,107.91,107.555,104.429,110.202z M110.615,103.528 c-0.081-0.209,0.047-0.498,0.248-0.721C110.752,104.866,110.624,105.156,110.615,103.528z"/>
   </g>
   <g fill="none" stroke-width="5" stroke-linecap="round" mask="url(#mask_flow)">
    <path stroke="#00f" d=" M 190,208 C 149,199 161,149 192,154 C 223,157 231,205 190,208 C 187,208 177,211 159,210 C 143,209 90,215 75,216 M 109,57 C 112,73 120,90 136,91 C 166,92 179,112 174,128 C 170,141 193,154 205,149 C 233,139 243,114 251,108"/>
    <path stroke="#90c" d=" M 75,216 C 44,216 25,174 77,178 C 123,184 95,242 124,266 M 104,86 C 117,58 128,62 129,52 C 129,42 108,34 109,57 M 251,108 C 271,93 283,106 282,128 M 104,86 C 109,73 104,58 96,63 C 92,69 99,74 122,85 M 176,149 C 196,144 191,164 183,164 C 176,164 176,157 185,154"/>
    <path stroke="#c00" d=" M 124,266 C 185,318 228,250 230,245 C 248,212 282,215 267,168 C 264,160 232,144 225,181 M 282,128 C 282,145 276,159 247,155 C 238,154 228,150 219,143 C 212,136 206,125 201,110 C 196,89 173,82 155,89 C 118,100 79,140 104,86 M 183,146 C 228,139 246,214 193,214 C 162,216 133,169 182,146 C 193,141 203,134 202,113"/>
   </g>
  </g>
  <switch><text transform="translate( 10, 135)" x="0" y="0.6ex" id="trsvg6-ca" systemLanguage="ca"><tspan id="trsvg1-ca">Corrent superficial</tspan></text><text transform="translate( 10, 135)" x="0" y="0.6ex" id="trsvg6"><tspan id="trsvg1">Surface current</tspan></text></switch>
  <switch><text transform="translate(-15,  60)" x="0" y="0.6ex" id="trsvg7-ca" systemLanguage="ca"><tspan id="trsvg2-ca">Corrent profund</tspan></text><text transform="translate(-15,  60)" x="0" y="0.6ex" id="trsvg7"><tspan id="trsvg2">Deep current</tspan></text></switch>
  <switch><text transform="translate(-40,-125)" x="0" y="0.6ex" id="trsvg8-ca" systemLanguage="ca"><tspan id="trsvg3-ca">Formació de corrent profund</tspan></text><text transform="translate(-40,-125)" x="0" y="0.6ex" id="trsvg8"><tspan id="trsvg3">Deep water formation</tspan></text></switch>
  <switch><text transform="translate( 25,   5)" x="0" y="0.6ex" text-anchor="end" id="trsvg9-ca" systemLanguage="ca"><tspan id="trsvg4-ca">Formació de corrent profund</tspan></text><text transform="translate( 25,   5)" x="0" y="0.6ex" text-anchor="end" id="trsvg9"><tspan id="trsvg4">Deep water formation ———</tspan></text></switch>
  <switch>
   <text systemLanguage="am" transform="translate(-18,-85)" x="0" y="0.6ex" font-weight="bold" id="trsvg10"><tspan id="trsvg5">AMOC</tspan></text>
  </switch>
 </g>
</svg>
